<?xml version="1.0" encoding="utf-8"?>
<!-- Generator: Adobe Illustrator 23.0.2, SVG Export Plug-In . SVG Version: 6.00 Build 0)  -->
<svg version="1.1" id="Calque_1" xmlns="http://www.w3.org/2000/svg" xmlns:xlink="http://www.w3.org/1999/xlink" x="0px" y="0px"
	 viewBox="0 0 30 30" style="enable-background:new 0 0 30 30;" xml:space="preserve">
<g>
	<path d="M27,7h-3V3c0-1.7-1.3-3-3-3H9C7.3,0,6,1.3,6,3v4H3c-1.7,0-3,1.3-3,3v10c0,1.7,1.3,3,3,3h3v6c0,0.6,0.4,1,1,1h16
		c0.6,0,1-0.4,1-1v-6h3c1.7,0,3-1.3,3-3V10C30,8.3,28.7,7,27,7z M8,3c0-0.6,0.4-1,1-1h12c0.6,0,1,0.4,1,1v4H8V3z M22,28H8v-6v-4h14
		v4V28z M28,20c0,0.6-0.4,1-1,1h-3v-4c0-0.6-0.4-1-1-1H7c-0.6,0-1,0.4-1,1v4H3c-0.6,0-1-0.4-1-1V10c0-0.6,0.4-1,1-1h4h16h4
		c0.6,0,1,0.4,1,1V20z"/>
</g>
</svg>
