<?xml version="1.0" encoding="utf-8"?>
<!-- Generator: Adobe Illustrator 23.0.2, SVG Export Plug-In . SVG Version: 6.00 Build 0)  -->
<svg version="1.1" id="Layer_1" xmlns="http://www.w3.org/2000/svg" xmlns:xlink="http://www.w3.org/1999/xlink" x="0px" y="0px"
	 viewBox="0 0 44.6 39.1" style="enable-background:new 0 0 44.6 39.1;" xml:space="preserve">
<path d="M40.1,9.7c0,0.4,0,0.8,0,1.3c0,13-9.2,28.1-26.1,28.1c-5.2,0-10-1.6-14-4.4c0.7,0.1,1.4,0.1,2.2,0.1c4.3,0,8.2-1.6,11.4-4.2
	c-4-0.1-7.4-2.9-8.6-6.8c0.6,0.1,1.1,0.2,1.7,0.2c0.8,0,1.7-0.1,2.4-0.3c-4.2-0.9-7.3-4.9-7.3-9.7c0,0,0-0.1,0-0.1
	C3,14.5,4.4,14.9,5.9,15c-2.5-1.7-4.1-4.8-4.1-8.2c0-1.8,0.4-3.5,1.2-5c4.5,6,11.3,9.9,18.9,10.3c-0.2-0.7-0.2-1.5-0.2-2.2
	c0-5.5,4.1-9.9,9.2-9.9c2.6,0,5,1.2,6.7,3.1c2.1-0.5,4.1-1.3,5.8-2.4c-0.7,2.3-2.1,4.2-4,5.4c1.9-0.2,3.6-0.8,5.3-1.6
	C43.4,6.6,41.9,8.3,40.1,9.7z"/>
</svg>
