<?xml version="1.0" encoding="utf-8"?>
<!-- Generator: Adobe Illustrator 23.0.2, SVG Export Plug-In . SVG Version: 6.00 Build 0)  -->
<svg version="1.1" id="Layer_1" xmlns="http://www.w3.org/2000/svg" xmlns:xlink="http://www.w3.org/1999/xlink" x="0px" y="0px"
	 viewBox="0 0 42.5 42.5" style="enable-background:new 0 0 42.5 42.5;" xml:space="preserve">
<path d="M21.2,42.5c-2.1,0-4.1-0.3-6-0.9c0.8-1.3,1.7-2.9,2.1-4.5c0.3-0.9,1.5-5.8,1.5-5.8c0.7,1.4,2.9,2.6,5.2,2.6
	c6.8,0,11.5-6.2,11.5-14.5C35.5,13,30.1,7.1,22,7.1C12,7.1,6.9,14.4,6.9,20.4c0,3.7,1.4,6.9,4.3,8.1c0.5,0.2,0.9,0,1.1-0.5
	c0.1-0.4,0.3-1.3,0.4-1.7c0.1-0.5,0.1-0.7-0.3-1.2c-0.9-1-1.4-2.3-1.4-4.2c0-5.4,4-10.2,10.4-10.2c5.7,0,8.8,3.5,8.8,8.1
	c0,6.1-2.7,11.3-6.7,11.3c-2.2,0-3.9-1.8-3.3-4.1c0.6-2.7,1.9-5.6,1.9-7.5c0-1.7-0.9-3.2-2.9-3.2c-2.3,0-4.1,2.3-4.1,5.5
	c0,2,0.7,3.4,0.7,3.4s-2.3,9.8-2.7,11.6c-0.4,1.6-0.4,3.4-0.4,4.9C5.2,37.4,0,29.9,0,21.2C0,9.5,9.5,0,21.2,0
	c11.7,0,21.2,9.5,21.2,21.2C42.5,32.9,32.9,42.5,21.2,42.5z"/>
</svg>
