<?xml version="1.0" encoding="utf-8"?>
<!-- Generator: Adobe Illustrator 23.0.2, SVG Export Plug-In . SVG Version: 6.00 Build 0)  -->
<svg version="1.1" id="Calque_1" xmlns="http://www.w3.org/2000/svg" xmlns:xlink="http://www.w3.org/1999/xlink" x="0px" y="0px"
	 viewBox="0 0 80 79.9" style="enable-background:new 0 0 80 79.9;" xml:space="preserve">
<path d="M8.3,8.3c-11.1,11.1-11.1,29.1,0,40.1c5.4,5.4,12.5,8.3,20.1,8.3c7.1,0,13.8-2.6,19-7.3l6.8,6.8c-1.8,2.7-1.5,6.4,0.9,8.8
	l12.8,12.8c1.3,1.3,3.1,2.1,5,2.1s3.7-0.7,5-2.1c2.8-2.8,2.8-7.2,0-10L65.1,55.1c-1.3-1.3-3.1-2.1-5-2.1c-1.4,0-2.7,0.4-3.8,1.1
	l-6.8-6.8c4.7-5.2,7.3-11.9,7.3-19c0-7.6-3-14.7-8.3-20.1S36,0,28.4,0S13.7,3,8.3,8.3z M57.2,57.2C58,56.5,59,56,60.1,56
	s2.1,0.4,2.9,1.2L75.8,70c1.6,1.6,1.6,4.2,0,5.8C75,76.6,74,77,72.9,77s-2.1-0.4-2.9-1.2L57.2,63C55.6,61.4,55.6,58.8,57.2,57.2z
	 M10.4,10.4C15.2,5.6,21.6,3,28.4,3s13.2,2.6,18,7.4s7.4,11.2,7.4,18s-2.6,13.2-7.4,18s-11.2,7.4-18,7.4s-13.2-2.6-18-7.4
	C0.5,36.4,0.5,20.3,10.4,10.4z"/>
</svg>
