<?xml version="1.0" encoding="utf-8"?>
<!-- Generator: Adobe Illustrator 23.0.2, SVG Export Plug-In . SVG Version: 6.00 Build 0)  -->
<svg version="1.1" id="Calque_1" xmlns="http://www.w3.org/2000/svg" xmlns:xlink="http://www.w3.org/1999/xlink" x="0px" y="0px"
	 viewBox="0 0 67 90" style="enable-background:new 0 0 67 90;" xml:space="preserve">
<path d="M33.5,0C15,0,0,15,0,33.5c0,20.6,29.4,54.6,29.4,54.6c2.2,2.6,5.9,2.6,8.1,0c0,0,29.4-34,29.4-54.6C67,15,52,0,33.5,0z
	 M33.5,47.6c-7.8,0-14.1-6.3-14.1-14.1c0-7.8,6.3-14.1,14.1-14.1c7.8,0,14.1,6.3,14.1,14.1C47.6,41.3,41.3,47.6,33.5,47.6z"/>
</svg>
