<?xml version="1.0" standalone="no"?>
<!DOCTYPE svg PUBLIC "-//W3C//DTD SVG 20010904//EN"
 "http://www.w3.org/TR/2001/REC-SVG-20010904/DTD/svg10.dtd">
<svg version="1.0" xmlns="http://www.w3.org/2000/svg"
 width="1022.000000pt" height="1022.000000pt" viewBox="0 0 1022.000000 1022.000000"
 preserveAspectRatio="xMidYMid meet">
<metadata>
Created by potrace 1.11, written by Peter Selinger 2001-2013
</metadata>
<g transform="translate(0.000000,1022.000000) scale(0.100000,-0.100000)"
fill="#000000" stroke="none">
<path d="M2147 9694 c-1 -1 -54 -4 -117 -7 -63 -4 -126 -9 -140 -11 -14 -3
-41 -8 -60 -10 -40 -6 -76 -13 -140 -27 -25 -6 -53 -12 -63 -14 -9 -2 -59 -17
-111 -34 -480 -152 -896 -471 -1169 -897 -144 -223 -256 -505 -301 -754 -9
-47 -18 -98 -21 -115 -3 -16 -8 -70 -12 -120 -10 -124 -9 -5130 1 -5235 9
-105 39 -269 67 -369 43 -157 125 -363 175 -443 13 -21 24 -41 24 -46 0 -11
114 -186 168 -256 26 -34 51 -67 57 -75 30 -39 270 -272 320 -311 72 -55 164
-120 170 -120 2 0 23 -13 47 -29 131 -87 455 -226 578 -247 14 -3 39 -9 55
-14 60 -18 173 -36 290 -47 106 -10 6229 -10 6321 0 223 24 440 81 641 168 65
28 123 55 128 59 6 4 41 24 79 45 63 34 254 159 266 174 3 3 34 30 70 60 149
125 320 322 434 501 60 94 155 288 196 400 37 100 95 320 107 405 4 33 8 1286
8 2785 0 2234 -2 2737 -13 2790 -52 251 -103 404 -201 600 -279 557 -784 964
-1391 1123 -83 22 -134 32 -265 52 -16 3 -70 8 -120 11 -70 5 -6072 13 -6078
8z m5050 -1338 c49 -3 99 -8 113 -11 14 -3 51 -10 83 -15 32 -6 99 -24 150
-40 517 -159 923 -572 1071 -1088 19 -65 37 -136 40 -158 4 -22 8 -51 11 -64
19 -100 28 -1133 10 -1155 -5 -7 -39 -22 -75 -33 -36 -11 -144 -46 -240 -77
-96 -31 -182 -58 -190 -60 -8 -2 -107 -34 -220 -70 -243 -79 -626 -202 -980
-315 -140 -45 -266 -85 -280 -90 -14 -5 -133 -43 -265 -85 -212 -68 -543 -174
-920 -296 -66 -21 -298 -95 -515 -164 -217 -70 -420 -135 -450 -145 -30 -10
-129 -41 -220 -70 -91 -28 -174 -55 -185 -60 -11 -5 -31 -12 -45 -15 -14 -4
-99 -31 -190 -60 -91 -29 -271 -87 -400 -128 -574 -184 -650 -210 -651 -220
-1 -7 -2 -127 -3 -267 -2 -221 0 -263 16 -316 23 -78 79 -143 156 -181 l57
-28 2358 -1 c1296 0 2360 -4 2364 -8 9 -8 10 -21 17 -236 4 -96 8 -224 11
-285 2 -60 7 -164 9 -230 3 -66 8 -185 11 -265 4 -80 8 -177 9 -217 l3 -71
-2441 2 c-1343 2 -2457 6 -2476 9 -19 4 -62 12 -95 18 -362 67 -732 289 -955
574 -17 22 -37 47 -43 55 -28 34 -126 199 -159 270 -59 122 -118 315 -133 430
-3 25 -9 77 -13 115 -10 91 -8 3563 2 3635 4 30 9 62 11 70 2 8 7 31 10 50 19
113 79 288 141 412 162 322 430 583 764 741 73 35 225 90 285 102 106 23 191
36 265 41 47 4 86 7 87 8 6 5 4022 -3 4090 -8z"/>
<path d="M3125 7049 c-120 -11 -200 -67 -253 -179 l-26 -55 -1 -752 c0 -594 2
-753 12 -753 7 0 52 12 100 26 76 22 198 58 373 109 25 7 358 105 740 218 382
112 704 207 715 210 11 3 97 28 190 57 94 28 177 53 185 55 8 2 94 27 190 55
96 28 227 67 290 85 63 19 185 55 270 80 85 26 169 51 185 55 17 4 68 19 115
33 47 14 186 55 310 92 124 36 279 82 345 102 146 43 280 82 320 93 17 5 65
19 108 32 l79 23 -4 100 c-3 80 -8 109 -27 145 -44 87 -130 153 -216 167 -45
8 -3919 9 -4000 2z"/>
</g>
</svg>
