<?xml version="1.0" encoding="utf-8"?>
<!-- Generator: Adobe Illustrator 23.0.2, SVG Export Plug-In . SVG Version: 6.00 Build 0)  -->
<svg version="1.1" id="Calque_1" xmlns="http://www.w3.org/2000/svg" xmlns:xlink="http://www.w3.org/1999/xlink" x="0px" y="0px"
	 viewBox="0 0 31.1 31.1" style="enable-background:new 0 0 31.1 31.1;" xml:space="preserve">
<style type="text/css">
	.st0{fill-rule:evenodd;clip-rule:evenodd;fill:#919191;}
	.st1{fill:#FF571C;}
	.st2{fill:#919191;}
</style>
<g>
	<polygon class="st0" points="22,9.6 21.5,9.1 15.6,15 9.6,9.1 9.1,9.6 15,15.6 9.1,21.5 9.6,22 15.6,16.1 21.5,22 22,21.5 
		16.1,15.6 	"/>
	<path class="st1" d="M29,15.6h-1c0-6.8-5.6-12.4-12.4-12.4v-1C23,2.2,29,8.2,29,15.6z"/>
	<path class="st2" d="M15.6,31.1C7,31.1,0,24.1,0,15.6C0,7,7,0,15.6,0h0c8.6,0,15.6,7,15.6,15.6C31.1,24.1,24.1,31.1,15.6,31.1z
		 M15.6,1C7.5,1,1,7.5,1,15.6c0,8,6.5,14.6,14.6,14.6c8,0,14.6-6.5,14.6-14.6C30.1,7.5,23.6,1,15.6,1L15.6,1z"/>
</g>
</svg>
