<svg xmlns="http://www.w3.org/2000/svg" viewBox="0 0 55 54.8"><path d="M45.5 54.8c-.9 0-1.8-.1-2.6-.4-5-1.4-7.9-6.7-6.4-11.7l.1-.5-19.4-9.4-.3.4c-.5.6-1 1.1-1.6 1.6-1.7 1.3-3.7 2-5.8 2-2.9 0-5.6-1.3-7.4-3.6-1.6-2-2.3-4.4-2-6.9.3-2.5 1.5-4.7 3.5-6.3 1.7-1.3 3.7-2 5.8-2 2.9 0 5.6 1.3 7.4 3.6l.3.4 19.4-9.4-.1-.5c-1.1-3.7.2-7.6 3.1-10C41.2.7 43.3 0 45.5 0c2.9 0 5.6 1.3 7.4 3.5 3.3 4.1 2.7 10.1-1.4 13.4-1.7 1.4-3.8 2.1-6 2.1-2.9 0-5.6-1.3-7.4-3.5l-.3-.3-19.3 9.3.1.5c.5 1.6.5 3.3 0 4.9l-.1.4L38 39.8l.3-.3c1.8-2.2 4.5-3.5 7.3-3.5.9 0 1.8.1 2.6.4 2.4.7 4.4 2.3 5.6 4.5 1.2 2.2 1.5 4.8.8 7.2-1.2 3.9-4.9 6.7-9.1 6.7zm-5.8-12.5c-.5.9-.8 2-.8 3.1 0 3.6 2.9 6.6 6.6 6.6 2.4 0 4.6-1.3 5.7-3.4 1.8-3.2.6-7.2-2.5-8.9-1-.5-2.1-.8-3.2-.8-2.4 0-4.6 1.3-5.8 3.4zM9.5 20.8c-3.6 0-6.6 2.9-6.6 6.6C2.9 31 5.8 34 9.5 34c3.6 0 6.6-2.9 6.6-6.6 0-3.6-3-6.6-6.6-6.6zm36-18c-1.1 0-2.1.3-3.1.8-1.5.8-2.7 2.2-3.2 3.9s-.3 3.5.5 5l.1.1c1.2 2.1 3.4 3.4 5.8 3.4 1.8 0 3.4-.7 4.6-1.9s1.9-2.9 1.9-4.6c0-3.7-3-6.7-6.6-6.7z"/></svg>