<svg version="1.1" id="Calque_1" xmlns="http://www.w3.org/2000/svg" x="0" y="0" viewBox="0 0 16 23.8" xml:space="preserve"><style>.st0{fill:#575756}</style><path class="st0" d="M11.9 13.6V8.9h-.1L7.7 6.6l-4 2.3v4.7l4.1 2.3 4.1-2.3zm-.4-.2l-3.6 2.1v-4.2l3.6-2.1v4.2zm-4 2.1l-3.6-2.1V9.2l3.6 2.1v4.2zm0-4.5h.2v-.3h-.2v.3L4.1 9l3.4-2h.2l3.6 2-3.6 2.1-.2-.1z"/><path transform="rotate(-30.021 7.021 11.512)" class="st0" d="M6.9 11.4h.3v.2h-.3z"/><path transform="rotate(-30.021 4.237 13.23)" class="st0" d="M4.1 13.1h.3v.2h-.3z"/><path transform="rotate(-30.031 5.334 12.505)" class="st0" d="M5.2 12.4h.3v.2h-.3z"/><path transform="rotate(-30.031 4.845 12.91)" class="st0" d="M4.7 12.8H5v.2h-.3z"/><path transform="rotate(-30.031 5.942 12.186)" class="st0" d="M5.8 12.1h.3v.2h-.3z"/><path transform="rotate(-30.031 6.463 11.917)" class="st0" d="M6.3 11.8h.3v.2h-.3z"/><path transform="rotate(-60.033 8.803 11.976)" class="st0" d="M8.7 11.8h.2v.3h-.2z"/><path transform="rotate(-60.007 9.367 12.257)" class="st0" d="M9.3 12.1h.2v.3h-.2z"/><path transform="rotate(-60.025 10.536 12.959)" class="st0" d="M10.4 12.8h.2v.3h-.2z"/><path transform="rotate(-60.025 11.101 13.24)" class="st0" d="M11 13.1h.2v.3H11z"/><path transform="rotate(-60.007 9.883 12.626)" class="st0" d="M9.8 12.5h.2v.3h-.2z"/><path transform="rotate(-60.053 8.236 11.692)" class="st0" d="M8.1 11.5h.2v.3h-.2z"/><path class="st0" d="M7.5 7.4h.2v.3h-.2zm0 1.3h.2V9h-.2zm0-.7h.2v.3h-.2zm0 1.3h.2v.3h-.2zm0 .7h.2v.3h-.2zm2.6 11.1H8.7v-3.5c0-.2-.1-.3-.3-.3H6.8c-.2 0-.3.1-.3.3v3.5H5.1c-.1 0-.1.1-.1.1v.1l2.4 2.4c.1.1.3.1.4 0l2.4-2.4c.1-.1.1-.1-.1-.2z"/><path class="st0" d="M15.3 5L11 .7C10.6.3 10 0 9.4 0H2.1C1 0 .1.9.1 2v16.7c-.1.1-.1.2-.1.3 0 1.1.9 2 2 2h2.4l.1-1.3H2.1c-.3 0-.5-.2-.6-.4V2c0-.4.3-.7.7-.7h5.9c.7 0 1.3.6 1.3 1.3v2.5c0 .8.7 1.5 1.5 1.5h2.5c.7 0 1.3.6 1.3 1.3v11.2c0 .4-.3.7-.7.7h-3.2v1.3H14c1.1 0 2-.9 2-2V6.6c0-.5-.3-1.2-.7-1.6z"/></svg>