<svg version="1.1" id="Calque_1" xmlns="http://www.w3.org/2000/svg" x="0" y="0" viewBox="0 0 16 23.8" xml:space="preserve"><style>.st0{fill:#575756}</style><path class="st0" d="M6 10.5c0-.2 0-.4-.1-.6-.1-.2-.2-.3-.4-.4-.1-.1-.3-.2-.5-.2H2.8v4.3h.6v-1.7h1.1c.6 0 1-.1 1.2-.4s.3-.6.3-1zm-.8.6c-.2.1-.4.2-.8.2H3.3V9.8h1.6c.1 0 .3.1.4.3.1.1.1.3.1.5s0 .3-.2.5zM9 13.4c.2 0 .4-.1.5-.2s.3-.2.4-.4l.3-.6c.1-.2.1-.5.1-.9s-.1-.7-.2-1c-.1-.2-.3-.5-.5-.7L9 9.3c-.2 0-.4-.1-.8-.1H6.7v4.3h1.5c.3 0 .6 0 .8-.1zM7.3 13V9.8h.9c.3 0 .6 0 .7.1.2.1.4.2.5.5.1.2.2.6.2 1 0 .3 0 .6-.1.8-.1.2-.2.4-.3.5-.1.1-.2.2-.4.2-.1.1-.3.1-.6.1h-.9zm6.6-3.2v-.5h-2.8v4.2h.5v-1.9h2v-.5h-2V9.8zm-3.8 11.3H8.7v-3.5c0-.2-.1-.3-.3-.3H6.8c-.2 0-.3.1-.3.3v3.5H5.1c-.1 0-.1.1-.1.1v.1l2.4 2.4c.1.1.3.1.4 0l2.4-2.4c.1-.1.1-.1-.1-.2z"/><path class="st0" d="M15.3 5L11 .7C10.6.3 10 0 9.4 0H2.1C1 0 .1.9.1 2v16.7c-.1.1-.1.2-.1.3 0 1.1.9 2 2 2h2.4l.1-1.3H2.1c-.3 0-.5-.2-.6-.4V2c0-.4.3-.7.7-.7h5.9c.7 0 1.3.6 1.3 1.3v2.5c0 .8.7 1.5 1.5 1.5h2.5c.7 0 1.3.6 1.3 1.3v11.2c0 .4-.3.7-.7.7h-3.2v1.3H14c1.1 0 2-.9 2-2V6.6c0-.5-.3-1.2-.7-1.6z"/></svg>