<svg version="1.1" id="Calque_1" xmlns="http://www.w3.org/2000/svg" x="0" y="0" viewBox="0 0 74.4 85.9" xml:space="preserve"><style>.st0{fill:#575756}</style><path class="st0" d="M74.4 21.5L37.2 0 0 21.5v42.9l37.2 21.5 37.2-21.5V21.5zm-2.5 41.3l-.1.2-33.3 19.3V43.7l33.4-19.3v38.4zM36 4.5h2.5v-.8l32.2 18.6-33.4 19.2L3.8 22.2 36 3.6v.9zM2.6 62.9V24.4l33.5 19.3v38.6L2.6 63.1v-.2z"/><path transform="rotate(-30.026 32.097 45.942)" class="st0" d="M30.6 44.7h3v2.5h-3z"/><path transform="rotate(-30.031 6.487 60.725)" class="st0" d="M5 59.5h3V62H5z"/><path transform="rotate(-30.031 16.708 54.849)" class="st0" d="M15.2 53.6h3v2.5h-3z"/><path transform="rotate(-30.031 11.623 57.83)" class="st0" d="M10.1 56.6h3v2.5h-3z"/><path transform="rotate(-30.031 21.794 51.867)" class="st0" d="M20.3 50.6h3v2.5h-3z"/><path transform="rotate(-30.031 27.016 48.922)" class="st0" d="M25.5 47.7h3v2.5h-3z"/><path transform="rotate(-60.028 47.523 48.865)" class="st0" d="M46.3 47.4h2.5v3h-2.5z"/><path transform="rotate(-60.012 52.677 51.873)" class="st0" d="M51.4 50.4h2.5v3h-2.5z"/><path transform="rotate(-60.028 62.888 57.833)" class="st0" d="M61.6 56.3h2.5v3h-2.5z"/><path transform="rotate(-60.028 68.089 60.752)" class="st0" d="M66.8 59.3h2.5v3h-2.5z"/><path transform="rotate(-60.02 57.74 54.83)" class="st0" d="M56.5 53.3H59v3h-2.5z"/><path transform="rotate(-60.053 42.407 45.998)" class="st0" d="M41.2 44.5h2.5v3h-2.5z"/><path class="st0" d="M36 7.5h2.5v3H36zm0 12h2.5v3H36zm0-6h2.5v3H36zm0 12h2.5v3H36zm0 6h2.5v3H36zm0 6h2.5v3H36z"/></svg>