<svg xmlns="http://www.w3.org/2000/svg" viewBox="0 0 87 87"><path d="M43.5 0C19.5 0 0 19.5 0 43.5S19.5 87 43.5 87 87 67.5 87 43.5 67.5 0 43.5 0zm0 84C21.2 84 3 65.8 3 43.5S21.2 3 43.5 3 84 21.2 84 43.5 65.8 84 43.5 84z"/><path d="M67 37l-15.4-2.9L45 19.8l-.1-.1c-.2-.2-.8-.8-1.7-.6-.4.1-.8.4-1.1.9l-6.7 14.3L20.2 37c-.8.2-1.3.9-1.2 1.7 0 .4.2.7.5.9L31 51.1l-3 15.1c-.1.4 0 .9.3 1.2.3.3.6.5 1 .5.2 0 .5 0 .8-.2l13.4-7.6 13.2 7.6c.2.1.5.2.8.2.5 0 1-.3 1.3-.7.2-.2.2-.6.2-1L56.1 51l11.5-11.5c.3-.3.4-.7.4-1.1 0-.4-.2-.8-.4-1.1-.1-.1-.3-.2-.6-.3z"/></svg>