<svg xmlns="http://www.w3.org/2000/svg" viewBox="0 0 42.5 42.5"><path d="M21.2 42.5c-2.1 0-4.1-.3-6-.9.8-1.3 1.7-2.9 2.1-4.5.3-.9 1.5-5.8 1.5-5.8.7 1.4 2.9 2.6 5.2 2.6 6.8 0 11.5-6.2 11.5-14.5C35.5 13 30.1 7.1 22 7.1c-10 0-15.1 7.3-15.1 13.3 0 3.7 1.4 6.9 4.3 8.1.5.2.9 0 1.1-.5.1-.4.3-1.3.4-1.7.1-.5.1-.7-.3-1.2-.9-1-1.4-2.3-1.4-4.2 0-5.4 4-10.2 10.4-10.2 5.7 0 8.8 3.5 8.8 8.1 0 6.1-2.7 11.3-6.7 11.3-2.2 0-3.9-1.8-3.3-4.1.6-2.7 1.9-5.6 1.9-7.5 0-1.7-.9-3.2-2.9-3.2-2.3 0-4.1 2.3-4.1 5.5 0 2 .7 3.4.7 3.4s-2.3 9.8-2.7 11.6c-.4 1.6-.4 3.4-.4 4.9C5.2 37.4 0 29.9 0 21.2 0 9.5 9.5 0 21.2 0s21.2 9.5 21.2 21.2c.1 11.7-9.5 21.3-21.2 21.3z"/></svg>