<svg xmlns="http://www.w3.org/2000/svg" viewBox="0 0 80 79.9"><path d="M8.3 8.3c-11.1 11.1-11.1 29.1 0 40.1 5.4 5.4 12.5 8.3 20.1 8.3 7.1 0 13.8-2.6 19-7.3l6.8 6.8c-1.8 2.7-1.5 6.4.9 8.8l12.8 12.8c1.3 1.3 3.1 2.1 5 2.1s3.7-.7 5-2.1c2.8-2.8 2.8-7.2 0-10L65.1 55.1c-1.3-1.3-3.1-2.1-5-2.1-1.4 0-2.7.4-3.8 1.1l-6.8-6.8c4.7-5.2 7.3-11.9 7.3-19 0-7.6-3-14.7-8.3-20.1S36 0 28.4 0 13.7 3 8.3 8.3zm48.9 48.9c.8-.7 1.8-1.2 2.9-1.2s2.1.4 2.9 1.2L75.8 70c1.6 1.6 1.6 4.2 0 5.8-.8.8-1.8 1.2-2.9 1.2s-2.1-.4-2.9-1.2L57.2 63c-1.6-1.6-1.6-4.2 0-5.8zM10.4 10.4C15.2 5.6 21.6 3 28.4 3s13.2 2.6 18 7.4 7.4 11.2 7.4 18-2.6 13.2-7.4 18-11.2 7.4-18 7.4-13.2-2.6-18-7.4c-9.9-10-9.9-26.1 0-36z"/></svg>