<svg xmlns="http://www.w3.org/2000/svg" viewBox="0 0 31.1 31.1"><path fill-rule="evenodd" clip-rule="evenodd" fill="#919191" d="M22 9.6l-.5-.5-5.9 5.9-6-5.9-.5.5 5.9 6-5.9 5.9.5.5 6-5.9 5.9 5.9.5-.5-5.9-5.9z"/><path d="M29 15.6h-1c0-6.8-5.6-12.4-12.4-12.4v-1C23 2.2 29 8.2 29 15.6z" fill="#ff571c"/><path d="M15.6 31.1C7 31.1 0 24.1 0 15.6 0 7 7 0 15.6 0s15.6 7 15.6 15.6c-.1 8.5-7.1 15.5-15.6 15.5zm0-30.1C7.5 1 1 7.5 1 15.6c0 8 6.5 14.6 14.6 14.6 8 0 14.6-6.5 14.6-14.6C30.1 7.5 23.6 1 15.6 1z" fill="#919191"/></svg>