<svg xmlns="http://www.w3.org/2000/svg" viewBox="0 0 89.5 90"><path d="M54.2 14.6L65 17.8l.2-4.2c.1-1.8-.4-1.9-2.3-2.3l-28.7-6c-2.2-.5-2.3 0-2.4 2.1L31 22l14.4-5.7c3.9-1.5 5.1-2.8 8.8-1.7zm-51.1 30l8.2 27 25.2 16.8c3.3 2.2 6.2 2.2 8.9 0l36.3-29.3 5.5-23.8-41.4 25c-3.9 2.4-7.8 4.6-12.2 2L3.1 44.6zm6.5 8l2.1 6.6 9.2 5.1V59L9.6 52.6zm3.8 12.2l1.6 5.1 5.8 3.7V69l-7.4-4.2zM25 76.4l10.5 6.7v-6 .1L25 71.3v5.1zm18.3 9.1c.1-.1.2-.2.4-.3l12.8-10v-6.1l-13.2 8.7v7.7zm17.3-13.6l8.9-7v-4.5l-8.9 5.9v5.6zm13.1-10.2l4.2-3.3 1-4.1-5.2 3.4v4zm6.6-13.2l1.2-4.9-7.7 4.5v4.6l6.5-4.2zm-10.7 2.1l-8.9 5.2v5.6l8.9-5.9v-4.9zm-13.1 7.7l-9.1 5.4c-1.4.8-2.7 1.5-4 2.1v7l13.2-8.7-.1-5.8zm-21.1 8.5c-1-.2-1.9-.6-3-1.2L25 61.3v5.3l10.5 5.9-.1-5.7zm34.5-47.6L86.2 24c3.9 1.1 4.7 5.4.9 7.8L44.2 57.7c-3.8 2.3-6.2 3.7-9.1 2L1.8 40.2c-2.9-1.7-2.3-5.8 1.6-7.4l22.7-9 1-18.9C27.3 1.1 29-.8 33.9.2L64 6.5c4.9 1 6.4 3.5 6.2 7.4l-.3 5.3zm-.2 5L69 37l9.8-5.9c5-3 5.5-2.5-.3-4.2l-8.8-2.7zm-5.8 15.9l.9-17.3L54 19.5c-2-.6-2.7-.5-4.5.2l-39.9 16c-4.1 1.6-3.7 1.2 0 3.3L34 53.4c4.2 2.4 3.3 2.8 7.7.1l22.2-13.4z" fill-rule="evenodd" clip-rule="evenodd"/></svg>