<svg xmlns="http://www.w3.org/2000/svg" viewBox="0 0 80 80"><path d="M80 8.6c0-.6-.4-1-1-1H68.8V1c0-.6-.4-1-1-1H59c-.6 0-1 .4-1 1v6.6H22V1c0-.6-.4-1-1-1h-8.9c-.6 0-1 .4-1 1v6.6H1c-.6 0-1 .4-1 1V79c0 .6.4 1 1 1h78c.6 0 1-.4 1-1V8.6zM33.2 50.3V38.4h13.6v11.9H33.2zm13.6 2v11.9H33.2V52.3h13.6zM2 38.4h13.6v11.9H2V38.4zm15.6 0h13.6v11.9H17.6V38.4zm31.2 0h13.6v11.9H48.8V38.4zm15.6 0H78v11.9H64.4V38.4zm13.6-2H64.4V24.7H78v11.7zm-15.6 0H48.8V24.7h13.6v11.7zm-15.6 0H33.2V24.7h13.6v11.7zm-15.6 0H17.6V24.7h13.6v11.7zm-15.6 0H2V24.7h13.6v11.7zM2 52.3h13.6v11.9H2V52.3zm15.6 0h13.6v11.9H17.6V52.3zm13.6 13.8V78H17.6V66.1h13.6zm2 0h13.6V78H33.2V66.1zm15.6 0h13.6V78H48.8V66.1zm0-2V52.3h13.6v11.9l-13.6-.1zm15.6-11.8H78v11.9H64.4V52.3zM60 2h6.9v12.1H60V2zM13.2 2H20v12.1h-6.9V2h.1zm-2 7.6v5.5c0 .6.4 1 1 1H21c.6 0 1-.4 1-1V9.6h36v5.5c0 .6.4 1 1 1h8.9c.6 0 1-.4 1-1V9.6H78v13.1H2V9.6h9.2zM2 66.1h13.6V78H2V66.1zM64.4 78V66.1H78V78H64.4z"/></svg>