<svg xmlns="http://www.w3.org/2000/svg" viewBox="0 0 86.8 86.8"><path d="M43.4 86.8c23.9 0 43.4-19.5 43.4-43.4S67.3 0 43.4 0 0 19.5 0 43.4s19.5 43.4 43.4 43.4zM16.3 74.1c0-1.3.6-2.5 1.6-3.4 7.1-5.9 14.8-9.8 16.3-10.5.6-.3 1-.9 1-1.6V47.5c0-.4-.2-.8-.5-1-1.1-.7-1.8-2-1.8-3.3V31.5c0-5.1 4.2-9.3 9.3-9.3h2.5c5.1 0 9.3 4.2 9.3 9.3v11.6c0 1.3-.7 2.6-1.8 3.3-.3.2-.6.6-.6 1v11.2c0 .7.4 1.3 1 1.6 1.5.7 9.2 4.6 16.3 10.5 1 .8 1.6 2 1.6 3.4-7.3 6.4-16.7 10.2-27.1 10.2s-19.8-3.8-27.1-10.2zM43.4 2.5c22.6 0 40.9 18.4 40.9 40.9 0 11.1-4.5 21.3-11.7 28.7-.4-1.3-1.1-2.4-2.2-3.2-6.8-5.6-14.2-9.5-16.4-10.6V48.1c1.5-1.2 2.3-3 2.3-5V31.5c0-6.5-5.3-11.7-11.7-11.7h-2.5c-6.5 0-11.7 5.3-11.7 11.7v11.6c0 1.9.9 3.8 2.3 5v10.2c-2.2 1.1-9.6 5-16.4 10.6-1 .9-1.8 2-2.2 3.2C6.9 64.7 2.5 54.5 2.5 43.4c0-22.6 18.3-40.9 40.9-40.9z"/></svg>