<?xml version="1.0" encoding="utf-8"?>
<!-- Generator: Adobe Illustrator 23.0.2, SVG Export Plug-In . SVG Version: 6.00 Build 0)  -->
<svg version="1.1" id="Calque_1" xmlns="http://www.w3.org/2000/svg" xmlns:xlink="http://www.w3.org/1999/xlink" x="0px" y="0px"
	 viewBox="0 0 55 54.8" style="enable-background:new 0 0 55 54.8;" xml:space="preserve">
<title>share, app, user interface, network, connection</title>
<path d="M45.5,54.8c-0.9,0-1.8-0.1-2.6-0.4c-5-1.4-7.9-6.7-6.4-11.7l0.1-0.5l-19.4-9.4l-0.3,0.4c-0.5,0.6-1,1.1-1.6,1.6
	c-1.7,1.3-3.7,2-5.8,2c-2.9,0-5.6-1.3-7.4-3.6c-1.6-2-2.3-4.4-2-6.9c0.3-2.5,1.5-4.7,3.5-6.3c1.7-1.3,3.7-2,5.8-2
	c2.9,0,5.6,1.3,7.4,3.6l0.3,0.4l19.4-9.4l-0.1-0.5c-1.1-3.7,0.2-7.6,3.1-10c1.7-1.4,3.8-2.1,6-2.1c2.9,0,5.6,1.3,7.4,3.5
	c3.3,4.1,2.7,10.1-1.4,13.4c-1.7,1.4-3.8,2.1-6,2.1c-2.9,0-5.6-1.3-7.4-3.5l-0.3-0.3l-19.3,9.3l0.1,0.5c0.5,1.6,0.5,3.3,0,4.9
	l-0.1,0.4L38,39.8l0.3-0.3c1.8-2.2,4.5-3.5,7.3-3.5c0.9,0,1.8,0.1,2.6,0.4c2.4,0.7,4.4,2.3,5.6,4.5c1.2,2.2,1.5,4.8,0.8,7.2
	C53.4,52,49.7,54.8,45.5,54.8L45.5,54.8z M39.7,42.3c-0.5,0.9-0.8,2-0.8,3.1c0,3.6,2.9,6.6,6.6,6.6c2.4,0,4.6-1.3,5.7-3.4
	c1.8-3.2,0.6-7.2-2.5-8.9c-1-0.5-2.1-0.8-3.2-0.8C43.1,38.9,40.9,40.2,39.7,42.3L39.7,42.3L39.7,42.3z M9.5,20.8
	c-3.6,0-6.6,2.9-6.6,6.6C2.9,31,5.8,34,9.5,34c3.6,0,6.6-2.9,6.6-6.6C16.1,23.8,13.1,20.8,9.5,20.8z M45.5,2.8
	c-1.1,0-2.1,0.3-3.1,0.8c-1.5,0.8-2.7,2.2-3.2,3.9s-0.3,3.5,0.5,5l0.1,0.1c1.2,2.1,3.4,3.4,5.8,3.4c1.8,0,3.4-0.7,4.6-1.9
	s1.9-2.9,1.9-4.6C52.1,5.8,49.1,2.8,45.5,2.8L45.5,2.8z"/>
</svg>
