<?xml version="1.0" encoding="utf-8"?>
<!-- Generator: Adobe Illustrator 22.0.0, SVG Export Plug-In . SVG Version: 6.00 Build 0)  -->
<svg version="1.1" id="Calque_1" xmlns="http://www.w3.org/2000/svg" xmlns:xlink="http://www.w3.org/1999/xlink" x="0px" y="0px"
	 viewBox="0 0 215.6 421.1" style="enable-background:new 0 0 215.6 421.1;" xml:space="preserve">
<path d="M207,1.5L1.5,207c-1,0.9-1.5,2.3-1.5,3.5c0,1.2,0.5,2.5,1.5,3.5l205.6,205.6c1.4,1.4,3.5,1.9,5.4,1.1
	c1.9-0.8,3.1-2.6,3.1-4.6v-56.6c0-1.3-0.6-2.6-1.5-3.5L68.6,210.6L214.1,65.1c1-0.9,1.5-2.2,1.5-3.5V5c0-2-1.2-3.8-3.1-4.6
	S208.4,0.1,207,1.5z"/>
</svg>
