<?xml version="1.0" encoding="utf-8"?>
<!-- Generator: Adobe Illustrator 22.0.0, SVG Export Plug-In . SVG Version: 6.00 Build 0)  -->
<svg version="1.1" id="Calque_1" xmlns="http://www.w3.org/2000/svg" xmlns:xlink="http://www.w3.org/1999/xlink" x="0px" y="0px"
	 viewBox="0 0 215.6 421.1" style="enable-background:new 0 0 215.6 421.1;" xml:space="preserve">
<path d="M3.1,0.4C1.2,1.2,0,3,0,5l0,56.6c0,1.3,0.5,2.6,1.5,3.5L147,210.6L1.5,356c-0.9,0.9-1.5,2.2-1.5,3.5l0,56.6
	c0,2,1.2,3.8,3.1,4.6c1.9,0.8,4,0.3,5.4-1.1L214.1,214c1-1,1.5-2.3,1.5-3.5s-0.5-2.6-1.5-3.5L8.6,1.5C7.2,0.1,5-0.4,3.1,0.4z"/>
</svg>
