<?xml version="1.0" encoding="utf-8"?>
<!-- Generator: Adobe Illustrator 23.0.2, SVG Export Plug-In . SVG Version: 6.00 Build 0)  -->
<svg version="1.1" id="Calque_1" xmlns="http://www.w3.org/2000/svg" xmlns:xlink="http://www.w3.org/1999/xlink" x="0px" y="0px"
	 viewBox="0 0 89.5 90" style="enable-background:new 0 0 89.5 90;" xml:space="preserve">
<style type="text/css">
	.st0{fill-rule:evenodd;clip-rule:evenodd;}
</style>
<g>
	<path class="st0" d="M54.2,14.6l10.8,3.2l0.2-4.2c0.1-1.8-0.4-1.9-2.3-2.3l-28.7-6c-2.2-0.5-2.3,0-2.4,2.1l-0.8,14.6l14.4-5.7
		C49.3,14.8,50.5,13.5,54.2,14.6L54.2,14.6z M3.1,44.6l8.2,27l25.2,16.8c3.3,2.2,6.2,2.2,8.9,0l36.3-29.3l5.5-23.8L45.8,60.3
		c-3.9,2.4-7.8,4.6-12.2,2L3.1,44.6L3.1,44.6z M9.6,52.6l2.1,6.6l9.2,5.1V59L9.6,52.6L9.6,52.6z M13.4,64.8l1.6,5.1l5.8,3.7V69
		C20.8,69,13.4,64.8,13.4,64.8z M25,76.4l10.5,6.7v-6l0,0.1L25,71.3L25,76.4L25,76.4z M43.3,85.5c0.1-0.1,0.2-0.2,0.4-0.3l12.8-10
		v-6.1l-13.2,8.7L43.3,85.5L43.3,85.5z M60.6,71.9l8.9-7v-4.5l-8.9,5.9C60.6,66.3,60.6,71.9,60.6,71.9z M73.7,61.7l4.2-3.3l1-4.1
		l-5.2,3.4V61.7z M80.3,48.5l1.2-4.9l-7.7,4.5v4.6L80.3,48.5z M69.6,50.6l-8.9,5.2v5.6l8.9-5.9V50.6L69.6,50.6z M56.5,58.3l-9.1,5.4
		c-1.4,0.8-2.7,1.5-4,2.1v7l13.2-8.7L56.5,58.3L56.5,58.3z M35.4,66.8c-1-0.2-1.9-0.6-3-1.2L25,61.3v5.3l10.5,5.9L35.4,66.8
		L35.4,66.8z M69.9,19.2L86.2,24c3.9,1.1,4.7,5.4,0.9,7.8L44.2,57.7c-3.8,2.3-6.2,3.7-9.1,2L1.8,40.2c-2.9-1.7-2.3-5.8,1.6-7.4
		l22.7-9l1-18.9c0.2-3.8,1.9-5.7,6.8-4.7L64,6.5c4.9,1,6.4,3.5,6.2,7.4L69.9,19.2L69.9,19.2z M69.7,24.2L69,37l9.8-5.9
		c5-3,5.5-2.5-0.3-4.2L69.7,24.2L69.7,24.2z M63.9,40.1l0.9-17.3L54,19.5c-2-0.6-2.7-0.5-4.5,0.2l-39.9,16c-4.1,1.6-3.7,1.2,0,3.3
		L34,53.4c4.2,2.4,3.3,2.8,7.7,0.1L63.9,40.1L63.9,40.1z"/>
</g>
</svg>
