<?xml version="1.0" encoding="utf-8"?>
<!-- Generator: Adobe Illustrator 23.0.2, SVG Export Plug-In . SVG Version: 6.00 Build 0)  -->
<svg version="1.1" id="Calque_1" xmlns="http://www.w3.org/2000/svg" xmlns:xlink="http://www.w3.org/1999/xlink" x="0px" y="0px"
	 viewBox="0 0 80 80" style="enable-background:new 0 0 80 80;" xml:space="preserve">
<path d="M80,8.6c0-0.6-0.4-1-1-1H68.8V1c0-0.6-0.4-1-1-1H59c-0.6,0-1,0.4-1,1v6.6H22V1c0-0.6-0.4-1-1-1h-8.9c-0.6,0-1,0.4-1,1v6.6H1
	c-0.6,0-1,0.4-1,1V79c0,0.6,0.4,1,1,1h78c0.6,0,1-0.4,1-1V8.6z M33.2,50.3V38.4h13.6v11.9L33.2,50.3L33.2,50.3z M46.8,52.3v11.9
	H33.2V52.3H46.8z M2,38.4h13.6v11.9H2V38.4z M17.6,38.4h13.6v11.9H17.6V38.4z M48.8,38.4h13.6v11.9H48.8V38.4z M64.4,38.4H78v11.9
	H64.4V38.4z M78,36.4H64.4V24.7H78V36.4z M62.4,36.4H48.8V24.7h13.6V36.4z M46.8,36.4H33.2V24.7h13.6C46.8,24.7,46.8,36.4,46.8,36.4
	z M31.2,36.4H17.6V24.7h13.6V36.4z M15.6,36.4H2V24.7h13.6V36.4z M2,52.3h13.6v11.9H2V52.3z M17.6,52.3h13.6v11.9H17.6V52.3z
	 M31.2,66.1V78H17.6V66.1H31.2z M33.2,66.1h13.6V78H33.2V66.1z M48.8,66.1h13.6V78H48.8V66.1z M48.8,64.1V52.3h13.6v11.9L48.8,64.1
	L48.8,64.1z M64.4,52.3H78v11.9H64.4V52.3z M60,2h6.9v12.1H60V2z M13.2,2H20v12.1h-6.9V2H13.2z M11.2,9.6v5.5c0,0.6,0.4,1,1,1H21
	c0.6,0,1-0.4,1-1V9.6h36v5.5c0,0.6,0.4,1,1,1h8.9c0.6,0,1-0.4,1-1V9.6H78v13.1H2V9.6H11.2z M2,66.1h13.6V78H2V66.1z M64.4,78V66.1
	H78V78H64.4z"/>
</svg>
