<?xml version="1.0" encoding="utf-8"?>
<!-- Generator: Adobe Illustrator 22.0.0, SVG Export Plug-In . SVG Version: 6.00 Build 0)  -->
<svg version="1.1" id="Calque_1" xmlns="http://www.w3.org/2000/svg" xmlns:xlink="http://www.w3.org/1999/xlink" x="0px" y="0px"
	 viewBox="0 0 73.2 73.2" style="enable-background:new 0 0 73.2 73.2;" xml:space="preserve">
<path d="M68,0.9L38.7,30.2c-1.2,1.2-3.1,1.2-4.2,0L5.2,0.9C4-0.3,2.1-0.3,1,0.9l0,0C-0.2,2.1-0.2,4,1,5.1l29.3,29.3
	c1.2,1.2,1.2,3.1,0,4.2L0.9,68c-1.2,1.2-1.2,3.1,0,4.2l0,0c1.2,1.2,3.1,1.2,4.2,0l29.3-29.3c1.2-1.2,3.1-1.2,4.2,0L68,72.3
	c1.2,1.2,3.1,1.2,4.2,0l0,0c1.2-1.2,1.2-3.1,0-4.2L43,38.7c-1.2-1.2-1.2-3.1,0-4.2L72.3,5.2c1.2-1.2,1.2-3.1,0-4.2l0,0
	C71.1-0.2,69.2-0.2,68,0.9z"/>
</svg>
