<?xml version="1.0" encoding="utf-8"?>
<!-- Generator: Adobe Illustrator 23.0.2, SVG Export Plug-In . SVG Version: 6.00 Build 0)  -->
<svg version="1.1" id="Calque_1" xmlns="http://www.w3.org/2000/svg" xmlns:xlink="http://www.w3.org/1999/xlink" x="0px" y="0px"
	 viewBox="0 0 50 50" style="enable-background:new 0 0 50 50;" xml:space="preserve">
<g>
	<g>
		<path d="M49,0H21c-0.6,0-1,0.4-1,1v8c0,0.6,0.4,1,1,1h28c0.6,0,1-0.4,1-1V1C50,0.4,49.6,0,49,0z M48,8H22V2h26V8z"/>
		<path d="M12.3,42.3L8,46.6V1c0-0.6-0.4-1-1-1S6,0.4,6,1v45.6l-4.3-4.3c-0.4-0.4-1-0.4-1.4,0s-0.4,1,0,1.4l6,6
			C6.5,49.9,6.7,50,7,50s0.5-0.1,0.7-0.3l6-6c0.4-0.4,0.4-1,0-1.4S12.7,41.9,12.3,42.3z"/>
		<path d="M43,16H21c-0.6,0-1,0.4-1,1v8c0,0.6,0.4,1,1,1h22c0.6,0,1-0.4,1-1v-8C44,16.4,43.6,16,43,16z M42,24H22v-6h20V24z"/>
		<path d="M35,32H21c-0.6,0-1,0.4-1,1v8c0,0.6,0.4,1,1,1h14c0.6,0,1-0.4,1-1v-8C36,32.4,35.6,32,35,32z M34,40H22v-6h12V40z"/>
	</g>
</g>
</svg>
