<?xml version="1.0" encoding="utf-8"?>
<!-- Generator: Adobe Illustrator 23.0.2, SVG Export Plug-In . SVG Version: 6.00 Build 0)  -->
<svg version="1.1" id="Calque_1" xmlns="http://www.w3.org/2000/svg" xmlns:xlink="http://www.w3.org/1999/xlink" x="0px" y="0px"
	 viewBox="0 0 16 23.8" style="enable-background:new 0 0 16 23.8;" xml:space="preserve">
<style type="text/css">
	.st0{fill:#575756;}
</style>
<g>
	<path class="st0" d="M11.9,13.6V8.9h-0.1L7.7,6.6l-4,2.3v4.7l4.1,2.3L11.9,13.6z M11.5,13.4l-3.6,2.1v-4.2l3.6-2.1V13.4z M7.5,15.5
		l-3.6-2.1V9.2l3.6,2.1V15.5z M7.5,11h0.2v-0.3H7.5L7.5,11L4.1,9l3.4-2h0.2l3.6,2l-3.6,2.1L7.5,11z"/>
	<rect x="6.9" y="11.4" transform="matrix(0.8658 -0.5003 0.5003 0.8658 -4.8177 5.0573)" class="st0" width="0.3" height="0.2"/>
	<rect x="4.1" y="13.1" transform="matrix(0.8658 -0.5003 0.5003 0.8658 -6.0508 3.8949)" class="st0" width="0.3" height="0.2"/>
	<rect x="5.2" y="12.4" transform="matrix(0.8658 -0.5005 0.5005 0.8658 -5.5428 4.3488)" class="st0" width="0.3" height="0.2"/>
	<rect x="4.7" y="12.8" transform="matrix(0.8658 -0.5005 0.5005 0.8658 -5.8109 4.1579)" class="st0" width="0.3" height="0.2"/>
	<rect x="5.8" y="12.1" transform="matrix(0.8658 -0.5005 0.5005 0.8658 -5.3015 4.6101)" class="st0" width="0.3" height="0.2"/>
	<rect x="6.3" y="11.8" transform="matrix(0.8658 -0.5005 0.5005 0.8658 -5.0968 4.8349)" class="st0" width="0.3" height="0.2"/>
	<rect x="8.7" y="11.8" transform="matrix(0.4995 -0.8663 0.8663 0.4995 -5.9686 13.6201)" class="st0" width="0.2" height="0.3"/>
	<rect x="9.3" y="12.1" transform="matrix(0.4999 -0.8661 0.8661 0.4999 -5.9311 14.2422)" class="st0" width="0.2" height="0.3"/>
	<rect x="10.4" y="12.8" transform="matrix(0.4996 -0.8662 0.8662 0.4996 -5.9533 15.6102)" class="st0" width="0.2" height="0.3"/>
	<rect x="11" y="13.1" transform="matrix(0.4996 -0.8662 0.8662 0.4996 -5.9149 16.2408)" class="st0" width="0.2" height="0.3"/>
	<rect x="9.8" y="12.5" transform="matrix(0.4999 -0.8661 0.8661 0.4999 -5.9929 14.8736)" class="st0" width="0.2" height="0.3"/>
	<rect x="8.1" y="11.5" transform="matrix(0.4992 -0.8665 0.8665 0.4992 -6.0063 12.9922)" class="st0" width="0.2" height="0.3"/>
	<rect x="7.5" y="7.4" class="st0" width="0.2" height="0.3"/>
	<rect x="7.5" y="8.7" class="st0" width="0.2" height="0.3"/>
	<rect x="7.5" y="8" class="st0" width="0.2" height="0.3"/>
	<rect x="7.5" y="9.3" class="st0" width="0.2" height="0.3"/>
	<rect x="7.5" y="10" class="st0" width="0.2" height="0.3"/>
	<path class="st0" d="M10.1,21.1H8.7v-3.5c0-0.2-0.1-0.3-0.3-0.3H6.8c-0.2,0-0.3,0.1-0.3,0.3v3.5H5.1C5,21.1,5,21.2,5,21.2v0.1
		l2.4,2.4c0.1,0.1,0.3,0.1,0.4,0l2.4-2.4C10.3,21.2,10.3,21.2,10.1,21.1L10.1,21.1z"/>
	<path class="st0" d="M15.3,5L11,0.7C10.6,0.3,10,0,9.4,0H2.1c-1.1,0-2,0.9-2,2v16.7C0,18.8,0,18.9,0,19c0,1.1,0.9,2,2,2h2.4
		l0.1-1.3H2.1c-0.3,0-0.5-0.2-0.6-0.4c0-0.1,0-0.1,0-0.2V2c0-0.4,0.3-0.7,0.7-0.7h5.9c0.7,0,1.3,0.6,1.3,1.3v2.5
		c0,0.8,0.7,1.5,1.5,1.5h2.5c0.7,0,1.3,0.6,1.3,1.3v11.2c0,0.4-0.3,0.7-0.7,0.7h-3.2v1.3H14c1.1,0,2-0.9,2-2V6.6
		C16,6.1,15.7,5.4,15.3,5z"/>
</g>
</svg>
