<?xml version="1.0" encoding="utf-8"?>
<!-- Generator: Adobe Illustrator 23.0.2, SVG Export Plug-In . SVG Version: 6.00 Build 0)  -->
<svg version="1.1" id="Calque_1" xmlns="http://www.w3.org/2000/svg" xmlns:xlink="http://www.w3.org/1999/xlink" x="0px" y="0px"
	 viewBox="0 0 74.4 85.9" style="enable-background:new 0 0 74.4 85.9;" xml:space="preserve">
<style type="text/css">
	.st0{fill:#575756;}
</style>
<g>
	<path class="st0" d="M74.4,21.5L37.2,0L0,21.5v42.9l37.2,21.5l37.2-21.5V21.5z M71.9,62.8L71.8,63L38.5,82.3V43.7l33.4-19.3V62.8z
		 M36,4.5h2.5V3.7l32.2,18.6L37.3,41.5L3.8,22.2L36,3.6V4.5z M2.6,62.9V24.4l33.5,19.3v38.6L2.6,63.1V62.9z"/>
	<rect x="30.6" y="44.7" transform="matrix(0.8658 -0.5004 0.5004 0.8658 -18.6821 22.227)" class="st0" width="3" height="2.5"/>
	<rect x="5" y="59.5" transform="matrix(0.8658 -0.5005 0.5005 0.8658 -29.5218 11.3996)" class="st0" width="3" height="2.5"/>
	<rect x="15.2" y="53.6" transform="matrix(0.8658 -0.5005 0.5005 0.8658 -25.2086 15.7263)" class="st0" width="3" height="2.5"/>
	<rect x="10.1" y="56.6" transform="matrix(0.8658 -0.5005 0.5005 0.8658 -27.3834 13.5813)" class="st0" width="3" height="2.5"/>
	<rect x="20.3" y="50.6" transform="matrix(0.8658 -0.5005 0.5005 0.8658 -23.0337 17.8712)" class="st0" width="3" height="2.5"/>
	<rect x="25.5" y="47.7" transform="matrix(0.8658 -0.5005 0.5005 0.8658 -20.8586 20.0896)" class="st0" width="3" height="2.5"/>
	<rect x="46.3" y="47.4" transform="matrix(0.4996 -0.8663 0.8663 0.4996 -18.5493 65.6234)" class="st0" width="2.5" height="3"/>
	<rect x="51.4" y="50.4" transform="matrix(0.4998 -0.8661 0.8661 0.4998 -18.5801 71.5682)" class="st0" width="2.5" height="3"/>
	<rect x="61.6" y="56.3" transform="matrix(0.4996 -0.8663 0.8663 0.4996 -18.629 83.4214)" class="st0" width="2.5" height="3"/>
	<rect x="66.8" y="59.3" transform="matrix(0.4996 -0.8663 0.8663 0.4996 -18.5557 89.388)" class="st0" width="2.5" height="3"/>
	<rect x="56.5" y="53.3" transform="matrix(0.4997 -0.8662 0.8662 0.4997 -18.606 77.4455)" class="st0" width="2.5" height="3"/>
	<rect x="41.2" y="44.5" transform="matrix(0.4992 -0.8665 0.8665 0.4992 -18.6203 59.7813)" class="st0" width="2.5" height="3"/>
	<rect x="36" y="7.5" class="st0" width="2.5" height="3"/>
	<rect x="36" y="19.5" class="st0" width="2.5" height="3"/>
	<rect x="36" y="13.5" class="st0" width="2.5" height="3"/>
	<rect x="36" y="25.5" class="st0" width="2.5" height="3"/>
	<rect x="36" y="31.5" class="st0" width="2.5" height="3"/>
	<rect x="36" y="37.5" class="st0" width="2.5" height="3"/>
</g>
</svg>
