<?xml version="1.0" encoding="utf-8"?>
<!-- Generator: Adobe Illustrator 23.0.2, SVG Export Plug-In . SVG Version: 6.00 Build 0)  -->
<svg version="1.1"
	 id="Calque_1" xmlns:cc="http://creativecommons.org/ns#" xmlns:dc="http://purl.org/dc/elements/1.1/" xmlns:inkscape="http://www.inkscape.org/namespaces/inkscape" xmlns:rdf="http://www.w3.org/1999/02/22-rdf-syntax-ns#" xmlns:sodipodi="http://sodipodi.sourceforge.net/DTD/sodipodi-0.dtd" xmlns:svg="http://www.w3.org/2000/svg"
	 xmlns="http://www.w3.org/2000/svg" xmlns:xlink="http://www.w3.org/1999/xlink" x="0px" y="0px" viewBox="0 0 87 87"
	 style="enable-background:new 0 0 87 87;" xml:space="preserve">
<g>
	<path d="M43.5,0C19.5,0,0,19.5,0,43.5S19.5,87,43.5,87C67.5,87,87,67.5,87,43.5S67.5,0,43.5,0z M43.5,84C21.2,84,3,65.8,3,43.5
		C3,21.2,21.2,3,43.5,3C65.8,3,84,21.2,84,43.5C84,65.8,65.8,84,43.5,84z"/>
	<path d="M67,37l-15.4-2.9L45,19.8l-0.1-0.1c-0.2-0.2-0.8-0.8-1.7-0.6c-0.4,0.1-0.8,0.4-1.1,0.9l-6.7,14.3L20.2,37
		c-0.8,0.2-1.3,0.9-1.2,1.7c0,0.4,0.2,0.7,0.5,0.9L31,51.1L28,66.2c-0.1,0.4,0,0.9,0.3,1.2c0.3,0.3,0.6,0.5,1,0.5
		c0.2,0,0.5,0,0.8-0.2l13.4-7.6l13.2,7.6c0.2,0.1,0.5,0.2,0.8,0.2c0.5,0,1-0.3,1.3-0.7c0.2-0.2,0.2-0.6,0.2-1L56.1,51l11.5-11.5
		c0.3-0.3,0.4-0.7,0.4-1.1c0-0.4-0.2-0.8-0.4-1.1C67.5,37.2,67.3,37.1,67,37z"/>
</g>
</svg>
