<?xml version="1.0" encoding="utf-8"?>
<!-- Generator: Adobe Illustrator 23.0.2, SVG Export Plug-In . SVG Version: 6.00 Build 0)  -->
<svg version="1.1" id="Calque_1" xmlns="http://www.w3.org/2000/svg" xmlns:xlink="http://www.w3.org/1999/xlink" x="0px" y="0px"
	 viewBox="0 0 16 23.8" style="enable-background:new 0 0 16 23.8;" xml:space="preserve">
<style type="text/css">
	.st0{fill:#575756;}
</style>
<g>
	<path class="st0" d="M6,10.5c0-0.2,0-0.4-0.1-0.6C5.8,9.7,5.7,9.6,5.5,9.5C5.4,9.4,5.2,9.3,5,9.3c-0.1,0-0.4,0-0.6,0H2.8v4.3h0.6
		v-1.7h1.1c0.6,0,1-0.1,1.2-0.4S6,10.9,6,10.5z M5.2,11.1c-0.2,0.1-0.4,0.2-0.8,0.2H3.3V9.8h1.1c0.3,0,0.4,0,0.5,0
		c0.1,0,0.3,0.1,0.4,0.3c0.1,0.1,0.1,0.3,0.1,0.5C5.4,10.8,5.4,10.9,5.2,11.1z"/>
	<path class="st0" d="M9,13.4c0.2,0,0.4-0.1,0.5-0.2s0.3-0.2,0.4-0.4c0.1-0.2,0.2-0.4,0.3-0.6c0.1-0.2,0.1-0.5,0.1-0.9
		c0-0.4-0.1-0.7-0.2-1C10,10.1,9.8,9.8,9.6,9.6C9.4,9.5,9.2,9.4,9,9.3c-0.2,0-0.4-0.1-0.8-0.1H6.7v4.3h1.5C8.5,13.5,8.8,13.5,9,13.4
		z M7.3,13V9.8h0.9c0.3,0,0.6,0,0.7,0.1c0.2,0.1,0.4,0.2,0.5,0.5c0.1,0.2,0.2,0.6,0.2,1c0,0.3,0,0.6-0.1,0.8
		c-0.1,0.2-0.2,0.4-0.3,0.5c-0.1,0.1-0.2,0.2-0.4,0.2C8.7,13,8.5,13,8.2,13H7.3z"/>
	<polygon class="st0" points="13.9,9.8 13.9,9.3 11.1,9.3 11.1,13.5 11.6,13.5 11.6,11.6 13.6,11.6 13.6,11.1 11.6,11.1 11.6,9.8 	
		"/>
	<path class="st0" d="M10.1,21.1H8.7v-3.5c0-0.2-0.1-0.3-0.3-0.3H6.8c-0.2,0-0.3,0.1-0.3,0.3v3.5H5.1C5,21.1,5,21.2,5,21.2v0.1
		l2.4,2.4c0.1,0.1,0.3,0.1,0.4,0l2.4-2.4C10.3,21.2,10.3,21.2,10.1,21.1L10.1,21.1z"/>
	<path class="st0" d="M15.3,5L11,0.7C10.6,0.3,10,0,9.4,0H2.1c-1.1,0-2,0.9-2,2v16.7C0,18.8,0,18.9,0,19c0,1.1,0.9,2,2,2h2.4
		l0.1-1.3H2.1c-0.3,0-0.5-0.2-0.6-0.4c0-0.1,0-0.1,0-0.2V2c0-0.4,0.3-0.7,0.7-0.7h5.9c0.7,0,1.3,0.6,1.3,1.3v2.5
		c0,0.8,0.7,1.5,1.5,1.5h2.5c0.7,0,1.3,0.6,1.3,1.3v11.2c0,0.4-0.3,0.7-0.7,0.7h-3.2v1.3H14c1.1,0,2-0.9,2-2V6.6
		C16,6.1,15.7,5.4,15.3,5z"/>
</g>
</svg>
