<?xml version="1.0" encoding="utf-8"?>
<!-- Generator: Adobe Illustrator 23.0.2, SVG Export Plug-In . SVG Version: 6.00 Build 0)  -->
<svg version="1.1" id="Calque_1" xmlns="http://www.w3.org/2000/svg" xmlns:xlink="http://www.w3.org/1999/xlink" x="0px" y="0px"
	 viewBox="0 0 44.8 78.1" style="enable-background:new 0 0 44.8 78.1;" xml:space="preserve">
<g>
	<path d="M22.4,4.9l18.9,18.9c0.8,0.8,2,0.8,2.8,0s0.8-2,0-2.8L23.9,0.6c-0.8-0.8-2-0.8-2.8,0L0.6,21C0.2,21.4,0,21.9,0,22.4
		s0.2,1,0.6,1.4c0.8,0.8,2,0.8,2.8,0L22.4,4.9z"/>
	<path d="M23.9,77.5l20.3-20.3c0.8-0.8,0.8-2,0-2.8s-2-0.8-2.8,0l-19,18.9l-19-19c-0.8-0.8-2-0.8-2.8,0C0.2,54.7,0,55.2,0,55.7
		s0.2,1,0.6,1.4L21,77.5C21.8,78.3,23.1,78.3,23.9,77.5z"/>
</g>
</svg>
