<?xml version="1.0" encoding="utf-8"?>
<!-- Generator: Adobe Illustrator 23.0.2, SVG Export Plug-In . SVG Version: 6.00 Build 0)  -->
<svg version="1.1" id="Layer_1" xmlns="http://www.w3.org/2000/svg" xmlns:xlink="http://www.w3.org/1999/xlink" x="0px" y="0px"
	 viewBox="0 0 41.6 41.6" style="enable-background:new 0 0 41.6 41.6;" xml:space="preserve">
<path d="M33.6,0H8C3.6,0,0,3.6,0,8v8.5v17c0,4.4,3.6,8,8,8h25.5c4.4,0,8-3.6,8-8v-17V8C41.6,3.6,38,0,33.6,0z M35.9,4.8l0.9,0v0.9
	v6.1l-7,0l0-7.1L35.9,4.8z M14.9,16.5c1.3-1.8,3.5-3.1,5.9-3.1c2.4,0,4.6,1.2,5.9,3.1c0.9,1.2,1.4,2.7,1.4,4.3c0,4-3.3,7.3-7.3,7.3
	c-4,0-7.3-3.3-7.3-7.3C13.5,19.2,14,17.8,14.9,16.5z M37.6,33.6c0,2.2-1.8,4-4,4H8c-2.2,0-4-1.8-4-4v-17h6.2
	c-0.5,1.3-0.8,2.8-0.8,4.3c0,6.3,5.1,11.4,11.4,11.4c6.3,0,11.4-5.1,11.4-11.4c0-1.5-0.3-3-0.8-4.3h6.2V33.6z"/>
</svg>
