<?xml version="1.0" encoding="utf-8"?>
<!-- Generator: Adobe Illustrator 23.0.2, SVG Export Plug-In . SVG Version: 6.00 Build 0)  -->
<svg version="1.1" id="Calque_1" xmlns="http://www.w3.org/2000/svg" xmlns:xlink="http://www.w3.org/1999/xlink" x="0px" y="0px"
	 viewBox="0 0 54 54" style="enable-background:new 0 0 54 54;" xml:space="preserve">
<path d="M52,4H2C0.9,4,0,3.1,0,2s0.9-2,2-2h50c1.1,0,2,0.9,2,2S53.1,4,52,4z"/>
<path d="M52,29H2c-1.1,0-2-0.9-2-2s0.9-2,2-2h50c1.1,0,2,0.9,2,2S53.1,29,52,29z"/>
<path d="M52,54H2c-1.1,0-2-0.9-2-2s0.9-2,2-2h50c1.1,0,2,0.9,2,2S53.1,54,52,54z"/>
</svg>
