<?xml version="1.0" encoding="utf-8"?>
<!-- Generator: Adobe Illustrator 23.0.2, SVG Export Plug-In . SVG Version: 6.00 Build 0)  -->
<svg version="1.1" id="Calque_1" xmlns="http://www.w3.org/2000/svg" xmlns:xlink="http://www.w3.org/1999/xlink" x="0px" y="0px"
	 viewBox="0 0 47.2 48" style="enable-background:new 0 0 47.2 48;" xml:space="preserve">
<path d="M47.2,44.5l-5.3-30c-0.3-1.4-1.5-2.5-3-2.5h-5.3v-2c0-5.5-4.5-10-10-10c-5.5,0-10,4.5-10,10v2H8.3c-1.5,0-2.7,1-3,2.5
	L0,44.5c-0.2,0.9,0.1,1.8,0.7,2.4C1.3,47.6,2.1,48,3,48h41.2c0.9,0,1.7-0.4,2.3-1.1C47.1,46.2,47.3,45.4,47.2,44.5z M15.6,10
	c0-4.4,3.6-8,8-8c4.4,0,8,3.6,8,8v2h-16V10z M45,45.6c-0.1,0.1-0.4,0.4-0.8,0.4H3c-0.4,0-0.7-0.2-0.8-0.4c-0.1-0.1-0.3-0.4-0.2-0.8
	l5.3-30c0.1-0.5,0.5-0.8,1-0.8h5.3v7h2v-7h16v7h2v-7h5.3c0.5,0,0.9,0.3,1,0.8l5.3,30C45.3,45.1,45.2,45.4,45,45.6z"/>
</svg>
